<svg xmlns="http://www.w3.org/2000/svg" width="349.325" height="349.324"><path d="M18.451 33.056C-8.6 73.651-6.972 151.824 42.83 207.313c46.215 51.491 115.158 108.634 115.735 109.101 1.478 1.341 36.774 32.91 88.89 32.91 5.043 0 10.161-.31 15.214-.919 56.533-6.83 77.256-43.071 84.579-64.059 3.782-10.801-2.585-24.196-13.914-29.254L266.985 225.6c-3.184-1.411-6.992-2.158-11.015-2.158-8.2 0-16.432 3.042-21.47 7.937l-20.911 20.262c-3.107 3.011-8.627 5.032-13.746 5.032-2.188 0-4.118-.386-5.57-1.122-14.116-7.079-36.3-21.211-61.857-48.307-22.681-24.07-33.456-40.568-38.506-50.173-2.821-5.373.127-14.678 4.552-19.096l18.603-18.596c7.734-7.734 11.217-21.962 7.924-32.39L104.07 20.556C100.887 10.453 90.149 0 77.629 0 60.288.584 35.942 6.795 18.451 33.056zm59.841-21.214c5.979.025 12.688 6.614 14.472 12.279l20.921 66.43c1.976 6.249-.366 15.8-5.001 20.444l-18.606 18.59c-7.599 7.6-12.093 22.673-6.66 32.989 5.39 10.248 16.765 27.729 40.37 52.783 26.743 28.351 50.196 43.259 65.158 50.77 3.067 1.544 6.846 2.356 10.903 2.356 8.231 0 16.655-3.199 21.978-8.358l20.91-20.256c4.164-4.037 14.062-5.825 19.419-3.453l66.354 29.492c5.058 2.25 9.45 9.075 7.551 14.508-6.413 18.393-24.663 50.15-74.804 56.214-4.58.553-9.221.827-13.802.827-46.996 0-79.704-28.741-81.133-30.011-.67-.554-69.292-57.498-114.676-108.06C7.081 149.737 3.598 76.686 28.302 39.619c14.7-22.057 35.289-27.279 49.99-27.777z"/></svg>